<svg width="48" height="48" viewBox="0 0 48 48" fill="none" xmlns="http://www.w3.org/2000/svg">
<path fill-rule="evenodd" clip-rule="evenodd" d="M48 24C48 37.2548 37.2548 48 24 48C10.7453 48 6.69002e-06 37.2548 5.53125e-06 24C4.37248e-06 10.7453 10.7453 -5.57786e-07 24 -1.71655e-06C37.2548 -2.87533e-06 48 10.7453 48 24ZM24 46C36.1503 46 46 36.1503 46 24C46 11.8498 36.1503 2 24 2C11.8498 2 2 11.8498 2.00001 24C2.00001 36.1503 11.8498 46 24 46Z" fill="white" fill-opacity="0.2"/>
<path fill-rule="evenodd" clip-rule="evenodd" d="M24.125 31.8125C23.5727 31.8125 23.125 31.3648 23.125 30.8125L23.125 17.0625C23.125 16.5102 23.5727 16.0625 24.125 16.0625C24.6773 16.0625 25.125 16.5102 25.125 17.0625L25.125 30.8125C25.125 31.3648 24.6773 31.8125 24.125 31.8125Z" fill="#F99D34"/>
<path fill-rule="evenodd" clip-rule="evenodd" d="M32 23.9375C32 24.4898 31.5523 24.9375 31 24.9375L17.25 24.9375C16.6977 24.9375 16.25 24.4898 16.25 23.9375C16.25 23.3852 16.6977 22.9375 17.25 22.9375L31 22.9375C31.5523 22.9375 32 23.3852 32 23.9375Z" fill="#F99D34"/>
</svg>
