<svg width="23" height="23" viewBox="0 0 23 23" fill="none" xmlns="http://www.w3.org/2000/svg">
<path fill-rule="evenodd" clip-rule="evenodd" d="M12.1942 17.1251C13.5612 16.416 18.2801 13.6336 18.2801 9.00939C18.2801 5.44564 15.3911 2.55664 11.8273 2.55664C8.26357 2.55664 5.37457 5.44564 5.37457 9.00939C5.37457 13.6336 10.0934 16.416 11.4604 17.1251C11.6935 17.246 11.9612 17.246 12.1942 17.1251ZM11.8273 11.7747C13.3547 11.7747 14.5928 10.5366 14.5928 9.00927C14.5928 7.48194 13.3547 6.2438 11.8273 6.2438C10.3 6.2438 9.06186 7.48194 9.06186 9.00927C9.06186 10.5366 10.3 11.7747 11.8273 11.7747Z" fill="white" fill-opacity="0.24"/>
<path d="M12.1942 17.1251L11.9396 16.6341H11.9396L12.1942 17.1251ZM11.4604 17.1251L11.7151 16.6341H11.7151L11.4604 17.1251ZM17.727 9.00939C17.727 11.121 16.6511 12.8407 15.357 14.146C14.0635 15.4507 12.5983 16.2925 11.9396 16.6341L12.4489 17.6161C13.1572 17.2487 14.7349 16.3446 16.1426 14.9248C17.5497 13.5055 18.8332 11.5219 18.8332 9.00939H17.727ZM11.8273 3.10973C15.0856 3.10973 17.727 5.7511 17.727 9.00939H18.8332C18.8332 5.14017 15.6965 2.00355 11.8273 2.00355V3.10973ZM5.92767 9.00939C5.92767 5.7511 8.56903 3.10973 11.8273 3.10973V2.00355C7.9581 2.00355 4.82148 5.14017 4.82148 9.00939H5.92767ZM11.7151 16.6341C11.0564 16.2925 9.59118 15.4507 8.29764 14.146C7.00359 12.8407 5.92767 11.121 5.92767 9.00939H4.82148C4.82148 11.5219 6.10498 13.5055 7.51209 14.9248C8.91971 16.3446 10.4974 17.2487 11.2057 17.6161L11.7151 16.6341ZM11.9396 16.6341C11.8662 16.6722 11.7885 16.6722 11.7151 16.6341L11.2057 17.6161C11.5985 17.8198 12.0561 17.8198 12.4489 17.6161L11.9396 16.6341ZM14.0397 9.00927C14.0397 10.2311 13.0492 11.2216 11.8273 11.2216V12.3278C13.6601 12.3278 15.1459 10.8421 15.1459 9.00927H14.0397ZM11.8273 6.79689C13.0492 6.79689 14.0397 7.78741 14.0397 9.00927H15.1459C15.1459 7.17648 13.6601 5.69071 11.8273 5.69071V6.79689ZM9.61495 9.00927C9.61495 7.78741 10.6055 6.79689 11.8273 6.79689V5.69071C9.99454 5.69071 8.50877 7.17648 8.50877 9.00927H9.61495ZM11.8273 11.2216C10.6055 11.2216 9.61495 10.2311 9.61495 9.00927H8.50877C8.50877 10.8421 9.99454 12.3278 11.8273 12.3278V11.2216Z" fill="white"/>
<path d="M19.0122 16.8446C19.7404 17.2651 20.1237 17.7419 20.1237 18.2274C20.1237 18.7128 19.7404 19.1897 19.0122 19.6101C18.2841 20.0305 17.2368 20.3796 15.9755 20.6223C14.7143 20.8651 13.2837 20.9928 11.8273 20.9928C10.371 20.9928 8.94036 20.8651 7.67914 20.6223C6.41793 20.3796 5.37061 20.0305 4.64245 19.6101C3.91429 19.1897 3.53094 18.7128 3.53094 18.2274C3.53094 17.7419 3.91429 17.2651 4.64245 16.8446" stroke="white" stroke-width="1.10619" stroke-linecap="round"/>
</svg>
