<svg width="23" height="24" viewBox="0 0 23 24" fill="none" xmlns="http://www.w3.org/2000/svg">
<path d="M17.0883 13.5795L19.5294 16.0206C19.8576 16.3489 19.8576 16.8811 19.5294 17.2093C17.7547 18.984 14.9451 19.1837 12.9372 17.6778L11.485 16.5886C9.87773 15.3832 8.44999 13.9555 7.24457 12.3483L6.15538 10.896C4.64949 8.88815 4.84916 6.07854 6.62387 4.30383C6.95213 3.97558 7.48434 3.97558 7.81259 4.30383L10.2537 6.74493C10.6137 7.10493 10.6137 7.68859 10.2537 8.04859L9.31238 8.9899C9.16278 9.1395 9.12569 9.36804 9.22031 9.55726C10.3142 11.745 12.0882 13.519 14.2759 14.6129C14.4652 14.7075 14.6937 14.6704 14.8433 14.5208L15.7846 13.5795C16.1446 13.2195 16.7283 13.2195 17.0883 13.5795Z" fill="white" fill-opacity="0.24" stroke="white" stroke-width="1.10619"/>
</svg>
