<svg width="289" height="142" viewBox="0 0 289 142" fill="none" xmlns="http://www.w3.org/2000/svg">
<path d="M9.828 52.216H22.048V57H3.9V20.86H9.828V52.216ZM53.2655 41.972C53.2655 43.0467 53.1961 44.0173 53.0575 44.884H31.1655C31.3388 47.172 32.1881 49.0093 33.7135 50.396C35.2388 51.7827 37.1108 52.476 39.3295 52.476C42.5188 52.476 44.7721 51.1413 46.0895 48.472H52.4855C51.6188 51.1067 50.0415 53.2733 47.7535 54.972C45.5001 56.636 42.6921 57.468 39.3295 57.468C36.5908 57.468 34.1295 56.8613 31.9455 55.648C29.7961 54.4 28.0975 52.6667 26.8495 50.448C25.6361 48.1947 25.0295 45.5947 25.0295 42.648C25.0295 39.7013 25.6188 37.1187 26.7975 34.9C28.0108 32.6467 29.6921 30.9133 31.8415 29.7C34.0255 28.4867 36.5215 27.88 39.3295 27.88C42.0335 27.88 44.4428 28.4693 46.5575 29.648C48.6721 30.8267 50.3188 32.4907 51.4975 34.64C52.6761 36.7547 53.2655 39.1987 53.2655 41.972ZM47.0775 40.1C47.0428 37.916 46.2628 36.1653 44.7375 34.848C43.2121 33.5307 41.3228 32.872 39.0695 32.872C37.0241 32.872 35.2735 33.5307 33.8175 34.848C32.3615 36.1307 31.4948 37.8813 31.2175 40.1H47.0775ZM57.1232 42.544C57.1232 39.6667 57.7126 37.1187 58.8912 34.9C60.1046 32.6813 61.7339 30.9653 63.7792 29.752C65.8592 28.504 68.1472 27.88 70.6432 27.88C72.8966 27.88 74.8552 28.3307 76.5192 29.232C78.2179 30.0987 79.5699 31.1907 80.5752 32.508V28.348H86.5552V57H80.5752V52.736C79.5699 54.088 78.2006 55.2147 76.4672 56.116C74.7339 57.0173 72.7579 57.468 70.5392 57.468C68.0779 57.468 65.8246 56.844 63.7792 55.596C61.7339 54.3133 60.1046 52.5453 58.8912 50.292C57.7126 48.004 57.1232 45.4213 57.1232 42.544ZM80.5752 42.648C80.5752 40.672 80.1592 38.956 79.3272 37.5C78.5299 36.044 77.4726 34.9347 76.1552 34.172C74.8379 33.4093 73.4166 33.028 71.8912 33.028C70.3659 33.028 68.9446 33.4093 67.6272 34.172C66.3099 34.9 65.2352 35.992 64.4032 37.448C63.6059 38.8693 63.2072 40.568 63.2072 42.544C63.2072 44.52 63.6059 46.2533 64.4032 47.744C65.2352 49.2347 66.3099 50.3787 67.6272 51.176C68.9792 51.9387 70.4006 52.32 71.8912 52.32C73.4166 52.32 74.8379 51.9387 76.1552 51.176C77.4726 50.4133 78.5299 49.304 79.3272 47.848C80.1592 46.3573 80.5752 44.624 80.5752 42.648ZM100.269 32.508C101.136 31.052 102.28 29.9253 103.701 29.128C105.157 28.296 106.873 27.88 108.849 27.88V34.016H107.341C105.019 34.016 103.251 34.6053 102.037 35.784C100.859 36.9627 100.269 39.008 100.269 41.92V57H94.3414V28.348H100.269V32.508ZM128.754 27.88C131.008 27.88 133.018 28.348 134.786 29.284C136.589 30.22 137.993 31.6067 138.998 33.444C140.004 35.2813 140.506 37.5 140.506 40.1V57H134.63V40.984C134.63 38.4187 133.989 36.46 132.706 35.108C131.424 33.7213 129.673 33.028 127.454 33.028C125.236 33.028 123.468 33.7213 122.15 35.108C120.868 36.46 120.226 38.4187 120.226 40.984V57H114.298V28.348H120.226V31.624C121.197 30.4453 122.428 29.5267 123.918 28.868C125.444 28.2093 127.056 27.88 128.754 27.88ZM199.64 20.86V57H193.712V32.248L182.688 57H178.58L167.504 32.248V57H161.576V20.86H167.972L180.66 49.2L193.296 20.86H199.64ZM219.859 57.468C217.155 57.468 214.711 56.8613 212.527 55.648C210.343 54.4 208.627 52.6667 207.379 50.448C206.131 48.1947 205.507 45.5947 205.507 42.648C205.507 39.736 206.149 37.1533 207.431 34.9C208.714 32.6467 210.465 30.9133 212.683 29.7C214.902 28.4867 217.381 27.88 220.119 27.88C222.858 27.88 225.337 28.4867 227.555 29.7C229.774 30.9133 231.525 32.6467 232.807 34.9C234.09 37.1533 234.731 39.736 234.731 42.648C234.731 45.56 234.073 48.1427 232.755 50.396C231.438 52.6493 229.635 54.4 227.347 55.648C225.094 56.8613 222.598 57.468 219.859 57.468ZM219.859 52.32C221.385 52.32 222.806 51.956 224.123 51.228C225.475 50.5 226.567 49.408 227.399 47.952C228.231 46.496 228.647 44.728 228.647 42.648C228.647 40.568 228.249 38.8173 227.451 37.396C226.654 35.94 225.597 34.848 224.279 34.12C222.962 33.392 221.541 33.028 220.015 33.028C218.49 33.028 217.069 33.392 215.751 34.12C214.469 34.848 213.446 35.94 212.683 37.396C211.921 38.8173 211.539 40.568 211.539 42.648C211.539 45.7333 212.319 48.1253 213.879 49.824C215.474 51.488 217.467 52.32 219.859 52.32ZM246.519 32.508C247.386 31.052 248.53 29.9253 249.951 29.128C251.407 28.296 253.123 27.88 255.099 27.88V34.016H253.591C251.269 34.016 249.501 34.6053 248.287 35.784C247.109 36.9627 246.519 39.008 246.519 41.92V57H240.591V28.348H246.519V32.508ZM286.808 41.972C286.808 43.0467 286.739 44.0173 286.6 44.884H264.708C264.882 47.172 265.731 49.0093 267.256 50.396C268.782 51.7827 270.654 52.476 272.872 52.476C276.062 52.476 278.315 51.1413 279.632 48.472H286.028C285.162 51.1067 283.584 53.2733 281.296 54.972C279.043 56.636 276.235 57.468 272.872 57.468C270.134 57.468 267.672 56.8613 265.488 55.648C263.339 54.4 261.64 52.6667 260.392 50.448C259.179 48.1947 258.572 45.5947 258.572 42.648C258.572 39.7013 259.162 37.1187 260.34 34.9C261.554 32.6467 263.235 30.9133 265.384 29.7C267.568 28.4867 270.064 27.88 272.872 27.88C275.576 27.88 277.986 28.4693 280.1 29.648C282.215 30.8267 283.862 32.4907 285.04 34.64C286.219 36.7547 286.808 39.1987 286.808 41.972ZM280.62 40.1C280.586 37.916 279.806 36.1653 278.28 34.848C276.755 33.5307 274.866 32.872 272.612 32.872C270.567 32.872 268.816 33.5307 267.36 34.848C265.904 36.1307 265.038 37.8813 264.76 40.1H280.62Z" fill="white"/>
<path d="M206.083 103.134C208.731 105.791 208.74 110.1 206.083 112.766L206.076 112.773L206.055 112.794L180.731 137.913L179.323 136.493L180.731 137.913C178.052 140.57 173.721 140.561 171.053 137.89L206.083 103.134ZM206.083 103.134L206.076 103.127L206.055 103.106L180.731 77.9867L180.731 77.9867C178.051 75.329 173.72 75.3388 171.053 78.0099C168.382 80.6843 168.393 85.0127 171.076 87.6744L171.076 87.6745L184.631 101.119H86.8466C83.0715 101.119 80 104.171 80 107.95C80 111.729 83.0715 114.78 86.8466 114.78H184.631L171.076 128.225L171.076 128.225C168.393 130.887 168.383 135.215 171.053 137.89L206.083 103.134Z" stroke="white" stroke-width="4"/>
</svg>
